Genre:Adventure | Family | Fantasy 
Language:English
IMDb:http://www.imdb.com/title/tt0940656/
Source:DVD

Format                           : Matroska
File size                        : 1 000 MiB
Duration                         : 1h 37mn
Overall bit rate                 : 1 441 Kbps


Video
Format settings, CABAC           : Yes
Format settings, ReFrames        : 4 frames
Codec ID                         : V_MPEG4/ISO/AVC
Duration                         : 1h 37mn
Bit rate                         : 1 000 Kbps
Width                            : 720 pixels
Height                           : 304 pixels
Display aspect ratio             : 2.35:1
Frame rate mode                  : Variable
Frame rate                       : 25.000 fps
Color space                      : YUV
Chroma subsampling               : 4:2:0
Bit depth                        : 8 bits
Scan type                        : Progressive
Bits/(Pixel*Frame)               : 0.183
Stream size                      : 669 MiB (67%)
Writing library                  : x264 


Audio
ID                               : 2
Format                           : AC-3
Format/Info                      : Audio Coding 3
Mode extension                   : CM (complete main)
Codec ID                         : A_AC3
Duration                         : 1h 37mn
Bit rate mode                    : Constant
Bit rate                         : 448 Kbps
Channel(s)                       : 6 channels
Channel positions                : Front: L C R, Side: L R, LFE
Sampling rate                    : 48.0 KHz
Bit depth                        : 16 bits
Video delay                      : -1mn 5s
Stream size                      : 311 MiB (31%)
Language                         : English

    
Plot:
  With Maltazard now 7 feet tall and Arthur still 2 inches small, our hero must find a way to grow back to his normal size ans stop the Evil M once and for all, with the help of Selenia and Betameche.

TRAILER:

Screens:-
 
http://shareimage.org/images/z93fotehn64qm7s7fhnq.png
 
http://shareimage.org/images/5zbbi5i094q2q1t9xe9.png
 
http://shareimage.org/images/73bz6iicdmrx49qgdtee.png
 
http://shareimage.org/images/ybtrgplvgiafurcehdob.png
 
http://shareimage.org/images/iyzpu0jyrkka1n14bcyh.png

Greets:

INK,CRYS,IMAGINE,LKRG,FXG,3Li,FLAWL3SS,TA,ViSiON,LU,TheFalcon007,PrisM,Noir,WBZ,LAP,Rx,Kingdom,SAFCuk009+Fabreezy,HDLiTE,TWiZTED,ExtraTorrentRG.ELEKTRI4KA,MAGNAT,CM8
                And to all the other p2p grps past and present 
 



Make sure its a real Feel-Free release @ extratorrent